<svg width="375" height="812" viewBox="0 0 375 812" fill="none" xmlns="http://www.w3.org/2000/svg">
<g clip-path="url(#clip0_1730_1716)">
<rect width="375" height="812" fill="#70B9BE"/>
<path d="M506 644.746C520.081 603.021 522.714 510.325 467.812 473.03C412.909 435.734 315.471 452.013 279 473.03C242.529 494.047 108.5 503 128 435.246C154.56 342.959 166.5 306.746 100 329.246C33.5 351.746 62.4765 291.629 -12 301.746C-71.5812 309.839 -132 398.746 -183 294.746" stroke="#3DA0A7"/>
<path d="M20.118 60.1502C36.3349 83.0634 16.9802 102.828 2.69825 103.553C-48.6615 105.599 -36.4129 85.8455 -31.8172 53.6139C-27.2215 21.3822 3.90112 37.2371 20.118 60.1502Z" stroke="#3DA0A7"/>
<path d="M163.26 -59.2404C169.419 -53.8555 179.032 -34.527 168.217 -0.291725C154.698 42.5024 127.736 130.658 187.691 136.593C247.646 142.529 293.355 123.192 284.984 100.957C276.613 78.7229 228.24 94.9269 243.548 156.139C258.857 217.351 339.498 249.011 399.919 205.472" stroke="#3DA0A7"/>
<path d="M296.581 445.033C295.394 445.307 294.206 446.586 293.476 447.225C292.106 448.413 290.644 449.326 289 450.148C289.548 450.97 290.827 451.427 291.74 451.609C292.745 451.792 293.658 451.609 294.663 451.427C295.12 451.335 295.577 451.153 296.033 450.97C297.403 450.148 299.778 446.768 298.043 445.398C297.586 445.033 297.038 444.942 296.581 445.033Z" fill="#7CA661"/>
<path d="M177.658 165.928C176.654 165.014 176.197 163.37 175.74 162C175.009 162.731 174.096 163.187 173 163.279C173.457 165.288 174.644 167.115 176.471 168.028C176.562 167.389 177.11 166.384 177.658 165.928Z" fill="#AEDC90"/>
<path d="M183.129 321.466L180.754 319C180.754 319 180.389 324.937 175 327.129L177.192 328.773C177.192 328.773 181.759 326.947 183.129 321.466Z" fill="#AEDC90"/>
<path d="M43.9352 388C42.3824 388.913 40.921 389.735 39.3682 390.649C38.4548 391.197 37.5414 391.654 36.902 392.476C36.1713 393.298 35.4406 394.759 36.628 395.49C37.8154 396.221 40.0076 395.033 41.0123 394.394C42.0171 393.754 43.0218 393.024 43.6612 391.928C44.94 389.918 43.7525 388.091 43.9352 388Z" fill="#7CA661"/>
<path d="M51.1511 245.855C51.6078 248.139 53.252 249.966 55.2614 251.153C57.1796 252.249 59.2804 252.432 61.4726 252.34C61.5639 252.34 61.6552 252.34 61.7466 252.34C61.7466 252.249 61.7466 252.158 61.7466 252.066C61.5639 249.144 60.5592 246.403 58.9151 243.937C57.3623 241.654 55.2614 239.827 53.1606 238C51.6078 240.284 50.6031 243.298 51.1511 245.855Z" fill="#AEDC90"/>
<path d="M51.1511 245.855C51.6078 248.139 53.252 249.966 55.2614 251.153C57.1796 252.249 59.2804 252.432 61.4726 252.34C61.5639 252.34 61.6552 252.34 61.7466 252.34C52.2472 247.043 53.1606 238 53.1606 238C51.6078 240.284 50.6031 243.298 51.1511 245.855Z" fill="#7CA661"/>
<path d="M53.5257 242.567C53.9824 244.759 55.2612 246.951 56.7226 248.595C58.0014 250.057 59.5542 251.427 61.381 252.34C61.4723 252.34 61.5637 252.34 61.655 252.34C61.655 252.249 61.655 252.158 61.655 252.066C59.9196 251.062 58.2754 249.965 56.9967 248.321C56.2659 247.408 55.6266 246.495 55.0785 245.49C54.5305 244.485 54.2565 243.48 53.8911 242.476C53.7998 242.293 53.5257 242.384 53.5257 242.567Z" fill="#39700B"/>
<path d="M347.595 212.855C347.139 215.139 345.495 216.966 343.485 218.153C341.567 219.249 339.466 219.432 337.274 219.34C337.183 219.34 337.091 219.34 337 219.34C337 219.249 337 219.158 337 219.066C337.183 216.144 338.187 213.403 339.832 210.937C341.384 208.654 343.485 206.827 345.586 205C347.139 207.284 348.143 210.298 347.595 212.855Z" fill="#AEDC90"/>
<path d="M347.595 212.855C347.139 215.139 345.495 216.966 343.485 218.153C341.567 219.249 339.466 219.432 337.274 219.34C337.183 219.34 337.091 219.34 337 219.34C346.499 214.043 345.586 205 345.586 205C347.139 207.284 348.143 210.298 347.595 212.855Z" fill="#7CA661"/>
<path d="M345.221 209.567C344.764 211.759 343.485 213.951 342.024 215.595C340.745 217.057 339.192 218.427 337.366 219.34C337.274 219.34 337.183 219.34 337.092 219.34C337.092 219.249 337.092 219.158 337.092 219.066C338.827 218.062 340.471 216.965 341.75 215.321C342.481 214.408 343.12 213.495 343.668 212.49C344.216 211.485 344.49 210.48 344.855 209.476C344.947 209.293 345.221 209.384 345.221 209.567Z" fill="#39700B"/>
<path d="M246.055 263C243.315 263 243.315 267.293 246.055 267.293C248.795 267.202 248.795 263 246.055 263Z" fill="#FFF1CE"/>
<path d="M196.016 412.011H195.925C195.377 412.103 194.92 412.742 195.012 413.29C195.012 413.838 195.377 414.478 195.925 414.569H196.016C196.839 414.752 197.661 414.204 197.661 413.29C197.661 412.377 196.839 411.92 196.016 412.011Z" fill="#FFF1CE"/>
<path d="M170.85 249C168.383 249 168.383 252.836 170.85 252.836C173.316 252.836 173.316 249 170.85 249Z" fill="#FFF1CE"/>
</g>
<defs>
<clipPath id="clip0_1730_1716">
<rect width="375" height="812" fill="white"/>
</clipPath>
</defs>
</svg>
